<svg width="22" height="22" viewBox="0 0 22 22" fill="none" xmlns="http://www.w3.org/2000/svg">
<path d="M8.8 15.4C9.11167 15.4 9.3731 15.2944 9.5843 15.0832C9.79477 14.8727 9.9 14.6117 9.9 14.3V7.6725C9.9 7.36083 9.79477 7.10417 9.5843 6.9025C9.3731 6.70083 9.11167 6.6 8.8 6.6C8.48833 6.6 8.22727 6.70523 8.0168 6.9157C7.8056 7.1269 7.7 7.38833 7.7 7.7V14.3275C7.7 14.6392 7.8056 14.8958 8.0168 15.0975C8.22727 15.2992 8.48833 15.4 8.8 15.4ZM13.2 15.4C13.5117 15.4 13.7731 15.2944 13.9843 15.0832C14.1948 14.8727 14.3 14.6117 14.3 14.3V7.6725C14.3 7.36083 14.1948 7.10417 13.9843 6.9025C13.7731 6.70083 13.5117 6.6 13.2 6.6C12.8883 6.6 12.6273 6.70523 12.4168 6.9157C12.2056 7.1269 12.1 7.38833 12.1 7.7V14.3275C12.1 14.6392 12.2056 14.8958 12.4168 15.0975C12.6273 15.2992 12.8883 15.4 13.2 15.4ZM11 22C9.47833 22 8.04833 21.7111 6.71 21.1332C5.37167 20.5561 4.2075 19.7725 3.2175 18.7825C2.2275 17.7925 1.44393 16.6283 0.8668 15.29C0.288933 13.9517 0 12.5217 0 11C0 9.47833 0.288933 8.04833 0.8668 6.71C1.44393 5.37167 2.2275 4.2075 3.2175 3.2175C4.2075 2.2275 5.37167 1.44357 6.71 0.8657C8.04833 0.288567 9.47833 0 11 0C12.5217 0 13.9517 0.288567 15.29 0.8657C16.6283 1.44357 17.7925 2.2275 18.7825 3.2175C19.7725 4.2075 20.5561 5.37167 21.1332 6.71C21.7111 8.04833 22 9.47833 22 11C22 12.5217 21.7111 13.9517 21.1332 15.29C20.5561 16.6283 19.7725 17.7925 18.7825 18.7825C17.7925 19.7725 16.6283 20.5561 15.29 21.1332C13.9517 21.7111 12.5217 22 11 22ZM11 19.8C13.4383 19.8 15.5148 18.9431 17.2293 17.2293C18.9431 15.5148 19.8 13.4383 19.8 11C19.8 8.56167 18.9431 6.48523 17.2293 4.7707C15.5148 3.0569 13.4383 2.2 11 2.2C8.56167 2.2 6.4856 3.0569 4.7718 4.7707C3.05727 6.48523 2.2 8.56167 2.2 11C2.2 13.4383 3.05727 15.5148 4.7718 17.2293C6.4856 18.9431 8.56167 19.8 11 19.8Z" fill="white"/>
</svg>
